<svg xmlns="http://www.w3.org/2000/svg" width="460" height="615" viewBox="0 0 460 615">
  <defs>
    <filter id="shadow" x="-20%" y="-20%" width="140%" height="150%">
      <feDropShadow dx="0" dy="8" stdDeviation="8" flood-color="#06130b" flood-opacity=".48"/>
    </filter>
    <style>
      .sans { font-family: "Segoe UI", Arial, sans-serif; }
      .label { font-size: 14px; font-weight: 800; letter-spacing: 1.8px; fill: #12351e; }
      .title { font-size: 23px; font-weight: 800; fill: #12351e; }
      .section { font-size: 14px; font-weight: 800; letter-spacing: 1.4px; fill: #89dfa0; }
      .item { font-size: 18px; font-weight: 700; fill: #ffffff; }
      .detail { font-size: 15px; font-weight: 500; fill: #c9efd2; }
      .box { fill: #0b2113; stroke: #89dfa0; stroke-width: 2; }
      .rule { stroke: #417552; stroke-width: 1; opacity: .8; }
    </style>
  </defs>
  <rect x="12" y="12" width="436" height="591" rx="22" fill="#102b19" fill-opacity=".95"
        stroke="#89dfa0" stroke-width="2" filter="url(#shadow)"/>
  <path d="M34 12h392a22 22 0 0 1 22 22v51H12V34a22 22 0 0 1 22-22z" fill="#a8e7ae"/>
  <text class="sans label" x="34" y="43">CHECKPOINT 1 / 2</text>
  <text class="sans title" x="34" y="72">Job Advancement &amp; Training</text>

  <text class="sans section" x="34" y="116">TRAINING WITH JOB INSTRUCTOR</text>

  <rect class="box" x="34" y="139" width="22" height="22" rx="4"/>
  <text class="sans item" x="70" y="157">Advance to Bowman</text>
  <line class="rule" x1="34" y1="178" x2="426" y2="178"/>

  <rect class="box" x="34" y="196" width="22" height="22" rx="4"/>
  <text class="sans item" x="70" y="214">First Training Session</text>
  <text class="sans detail" x="70" y="238">Defeat 16 Slimes</text>
  <line class="rule" x1="34" y1="257" x2="426" y2="257"/>

  <rect class="box" x="34" y="275" width="22" height="22" rx="4"/>
  <text class="sans item" x="70" y="293">Second Training Session</text>
  <text class="sans detail" x="70" y="317">Defeat 40 Slimes</text>
  <line class="rule" x1="34" y1="336" x2="426" y2="336"/>

  <rect class="box" x="34" y="354" width="22" height="22" rx="4"/>
  <text class="sans item" x="70" y="372">Third Training Session</text>
  <text class="sans detail" x="70" y="396">Defeat 65 Slimes</text>
  <line class="rule" x1="34" y1="415" x2="426" y2="415"/>

  <rect class="box" x="34" y="433" width="22" height="22" rx="4"/>
  <text class="sans item" x="70" y="451">Last Training Session</text>
  <text class="sans detail" x="70" y="475">Defeat 15 Ribbon Pigs</text>

  <rect x="28" y="500" width="404" height="1" fill="#89dfa0" opacity=".62"/>
  <text class="sans section" x="34" y="530">STOCK UP</text>
  <rect class="box" x="34" y="550" width="22" height="22" rx="4"/>
  <text class="sans item" x="70" y="568">Buy potions and supplies</text>
</svg>
